<?xml version="1.0" standalone="no"?>
<!DOCTYPE svg PUBLIC "-//W3C//DTD SVG 20010904//EN"
 "http://www.w3.org/TR/2001/REC-SVG-20010904/DTD/svg10.dtd">
<svg version="1.0" xmlns="http://www.w3.org/2000/svg"
 width="512.000000pt" height="512.000000pt" viewBox="0 0 512.000000 512.000000"
 preserveAspectRatio="xMidYMid meet">
<metadata>
Created by potrace 1.14, written by Peter Selinger 2001-2017
</metadata>
<g transform="translate(0.000000,512.000000) scale(0.100000,-0.100000)"
fill="#000000" stroke="none">
<path d="M2958 3495 c-19 -13 -44 -35 -54 -49 -15 -18 -31 -25 -72 -28 l-53
-5 -27 46 -27 46 -7 -59 c-9 -66 2 -122 33 -172 10 -17 19 -35 19 -40 0 -11
-47 -34 -55 -26 -3 3 -21 11 -39 17 l-34 12 11 -31 c6 -17 13 -33 16 -36 14
-12 30 -49 23 -54 -4 -2 -24 -7 -44 -11 -30 -6 -44 -2 -70 16 -18 13 -37 29
-41 36 -16 26 -23 12 -17 -34 8 -62 31 -108 53 -107 9 1 14 -2 11 -7 -3 -5 4
-9 15 -9 22 0 29 -24 11 -35 -5 -3 -10 -14 -10 -24 0 -10 -6 -18 -12 -19 -7 0
-31 -7 -53 -15 -48 -18 -96 -11 -102 14 -3 11 -33 33 -69 50 -54 27 -71 31
-106 25 -24 -4 -62 -7 -85 -6 -23 0 -44 -4 -48 -10 -3 -5 -1 -10 4 -10 6 0 11
-4 11 -10 0 -5 -20 -10 -45 -10 -46 0 -125 -26 -125 -40 0 -5 -7 -16 -17 -25
-13 -13 -28 -16 -72 -11 -31 3 -49 3 -41 -1 8 -3 17 -9 20 -12 37 -47 114 -64
177 -40 45 18 132 27 136 15 3 -6 -2 -24 -11 -40 -16 -33 -11 -124 9 -136 6
-4 11 -11 12 -16 1 -5 5 -8 9 -7 4 2 2 -11 -4 -27 -5 -17 -14 -30 -20 -30 -6
0 -7 -7 -4 -16 3 -8 2 -13 -3 -10 -15 10 -46 -127 -46 -205 1 -60 8 -93 34
-165 19 -49 40 -98 48 -109 9 -13 11 -34 7 -65 -6 -50 3 -67 64 -109 17 -12
32 -30 32 -40 0 -9 5 -22 11 -28 8 -8 8 -17 0 -31 -6 -10 -7 -22 -4 -26 3 -3
2 -6 -4 -6 -5 0 -15 -12 -22 -26 -10 -23 -8 -30 14 -60 15 -19 30 -32 35 -29
5 3 11 1 15 -4 3 -6 13 -7 22 -4 12 5 14 3 8 -7 -5 -8 -3 -11 6 -8 8 3 20 -2
28 -9 7 -8 20 -12 27 -9 8 3 14 1 14 -4 0 -6 7 -10 15 -10 9 0 15 -10 15 -26
0 -14 5 -34 11 -45 6 -12 7 -28 3 -37 -4 -9 -6 -20 -6 -25 1 -4 -2 -7 -6 -7
-4 0 -14 -16 -21 -36 -12 -34 -12 -37 16 -63 63 -62 127 -76 187 -40 27 16 36
28 41 60 12 68 9 123 -8 155 -9 18 -16 52 -15 78 0 42 3 46 25 46 13 0 27 8
30 17 4 9 21 30 40 46 39 34 49 63 73 220 9 62 18 91 30 97 26 14 74 20 80 11
3 -5 44 -27 91 -49 116 -55 117 -56 89 -141 -12 -39 -31 -78 -42 -88 -11 -10
-24 -28 -29 -40 -7 -19 -14 -22 -38 -17 -33 7 -121 -27 -121 -47 0 -5 -4 -8
-9 -4 -9 5 -22 -27 -34 -82 -3 -13 -1 -26 4 -29 5 -3 7 -9 4 -14 -19 -30 130
-115 158 -91 7 5 17 11 22 13 6 1 9 6 8 10 -2 4 3 5 10 2 21 -8 64 32 89 82
12 25 30 49 38 54 9 5 22 28 29 52 7 24 20 59 27 78 8 19 15 40 16 45 1 6 8
16 15 23 7 7 13 21 13 31 0 10 12 28 26 42 24 22 25 29 20 79 -7 53 -47 130
-68 130 -5 0 -7 4 -4 9 3 5 0 14 -8 20 -7 6 -21 29 -31 51 -10 22 -22 40 -26
40 -5 0 -6 6 -3 14 3 8 -3 23 -13 33 -45 46 -53 69 -51 158 2 77 4 87 25 101
13 8 21 20 17 26 -4 7 -3 8 4 4 12 -7 35 24 47 64 4 13 13 30 20 36 18 18 28
96 14 104 -8 5 -10 39 -9 101 2 52 3 104 2 116 0 13 4 21 8 18 4 -2 13 16 20
41 12 41 11 51 -8 97 -26 62 -27 80 -7 97 9 7 14 19 11 27 -3 8 -1 11 4 8 9
-5 12 8 9 31 0 4 4 10 10 13 6 4 13 39 17 78 6 67 5 71 -12 68 -11 -2 -23 -4
-29 -4 -14 -1 -83 -61 -70 -61 5 0 -1 -7 -13 -16 -21 -14 -24 -14 -51 9 -16
13 -57 32 -91 41 l-62 18 6 44 c3 24 2 44 -2 44 -4 0 -24 -11 -44 -25z m-4
-197 c22 -37 28 -40 70 -42 34 -1 52 -8 74 -29 l28 -27 33 45 c18 25 36 45 40
45 5 0 21 18 36 40 15 22 30 39 32 36 11 -11 -22 -99 -44 -116 -24 -19 -25
-21 -13 -72 7 -29 19 -65 26 -80 12 -23 12 -33 -1 -70 -9 -24 -20 -90 -25
-148 -8 -86 -7 -109 5 -127 20 -30 19 -45 -5 -76 -11 -14 -20 -37 -20 -51 0
-14 -3 -26 -7 -27 -89 -11 -123 -3 -123 29 0 8 -11 25 -24 37 -19 17 -26 38
-32 84 -6 54 -10 64 -34 76 -28 15 -33 30 -53 175 -1 8 -11 -13 -21 -47 l-19
-62 26 -103 c27 -107 44 -228 33 -228 -3 0 -25 14 -48 30 -42 31 -62 35 -117
24 l-32 -7 20 -21 c28 -30 61 -130 61 -185 l0 -46 -25 31 c-13 17 -33 34 -44
37 -19 5 -19 4 0 -27 17 -27 27 -106 14 -106 -2 0 -22 7 -42 15 -52 21 -99 13
-132 -20 -21 -23 -22 -26 -6 -19 23 9 81 9 172 -1 l63 -7 15 -51 c13 -45 13
-53 0 -74 -10 -14 -25 -23 -43 -23 l-27 -1 23 -18 c26 -23 27 -40 6 -168 -17
-106 -28 -135 -71 -175 -23 -22 -42 -29 -88 -34 l-60 -6 -23 42 c-22 38 -23
46 -12 91 15 60 55 89 97 70 21 -10 24 -16 18 -39 -8 -31 -5 -29 30 21 34 51
60 211 39 242 -8 11 -14 30 -14 44 0 34 -12 18 -19 -26 -5 -30 -15 -43 -49
-66 -23 -15 -57 -31 -76 -34 -32 -5 -34 -4 -52 42 -17 45 -17 52 -2 114 12 49
14 86 9 146 -7 75 -8 78 -19 51 -7 -16 -12 -54 -11 -85 0 -31 -8 -81 -18 -113
l-19 -57 -59 38 c-33 21 -68 52 -77 68 -21 36 -40 158 -33 205 5 31 5 32 -6 8
-6 -14 -12 -65 -13 -115 -1 -92 -1 -91 61 -233 9 -21 -68 14 -93 42 -11 13
-34 63 -49 111 -26 79 -28 92 -18 139 30 140 87 225 209 312 58 42 134 69 134
48 0 -5 -7 -27 -15 -49 -8 -22 -14 -51 -15 -65 0 -18 7 -11 28 29 38 75 91
132 165 179 55 35 65 46 86 98 22 52 103 186 144 237 9 10 21 15 31 11 15 -6
15 -3 0 32 -9 22 -25 56 -35 76 -11 21 -19 40 -19 43 0 16 54 -33 74 -67z
m-524 -432 c0 -2 -8 -10 -17 -17 -16 -13 -17 -12 -4 4 13 16 21 21 21 13z
m-134 -21 c-11 -8 -25 -15 -30 -15 -6 1 0 7 14 15 32 19 40 18 16 0z m741
-222 c17 -35 22 -38 67 -43 44 -4 47 -7 33 -19 -21 -17 -105 -10 -118 10 -9
15 -13 89 -4 89 3 0 13 -17 22 -37z m135 -458 c17 -33 46 -78 64 -100 36 -45
54 -84 54 -121 0 -47 -48 -21 -172 93 -54 51 -60 65 -17 42 11 -6 25 -9 32 -6
6 2 -19 27 -57 57 -66 52 -67 54 -61 89 3 21 17 45 33 59 l27 23 33 -38 c19
-21 48 -65 64 -98z m-736 -141 c-24 -21 -46 -31 -46 -21 0 2 7 18 16 35 14 28
18 31 37 21 21 -12 21 -12 -7 -35z m244 -59 c-7 -19 -15 -25 -26 -21 -9 3 -21
6 -27 6 -6 0 4 13 23 29 38 32 46 28 30 -14z m-217 -58 c24 -17 28 -25 23 -50
-3 -16 -1 -46 5 -67 17 -55 -8 -126 -41 -122 -34 4 -35 7 -17 49 9 21 16 64
16 95 -1 53 -3 59 -45 100 -24 24 -44 47 -44 51 0 8 47 -17 103 -56z"/>
<path d="M2980 3120 c0 -16 -5 -39 -12 -49 -15 -24 1 -63 47 -115 39 -43 42
-41 20 11 -8 19 -15 54 -14 77 1 43 -13 90 -30 101 -7 4 -11 -5 -11 -25z m20
-90 c0 -5 -4 -10 -10 -10 -5 0 -10 5 -10 10 0 6 5 10 10 10 6 0 10 -4 10 -10z"/>
<path d="M3055 3086 c0 -48 2 -53 18 -45 9 5 17 13 17 18 0 9 -29 81 -33 81
-1 0 -2 -24 -2 -54z"/>
<path d="M3176 3105 c8 -59 13 -70 25 -58 6 6 3 24 -11 54 l-21 44 7 -40z"/>
<path d="M2860 3053 c-18 -32 -47 -91 -64 -132 -17 -41 -40 -79 -51 -85 -57
-32 -123 -81 -147 -109 -34 -40 -36 -58 -3 -25 14 14 60 40 103 58 107 46 115
55 132 147 7 43 17 85 22 93 14 25 48 110 44 110 -2 0 -19 -26 -36 -57z"/>
<path d="M3175 2966 c-11 -16 -14 -39 -11 -72 2 -27 5 -57 5 -67 1 -10 6 -15
12 -12 5 4 9 36 8 73 0 37 2 75 6 85 10 25 -2 21 -20 -7z"/>
<path d="M3165 2780 c-3 -6 1 -7 9 -4 18 7 21 14 7 14 -6 0 -13 -4 -16 -10z"/>
<path d="M3041 2736 c-14 -17 -4 -43 25 -67 15 -12 17 -12 12 1 -3 8 -1 23 3
32 19 36 -15 64 -40 34z"/>
<path d="M3175 2709 c-8 -25 -1 -34 20 -26 19 8 20 47 1 47 -8 0 -18 -9 -21
-21z"/>
<path d="M3230 1501 c0 -5 5 -13 10 -16 6 -3 10 -2 10 4 0 5 -4 13 -10 16 -5
3 -10 2 -10 -4z"/>
<path d="M3261 1483 c-10 -26 -10 -27 4 -9 8 11 15 23 15 28 0 15 -7 8 -19
-19z"/>
</g>
</svg>
